<svg width="19" height="19" viewBox="0 0 19 19" fill="none" xmlns="http://www.w3.org/2000/svg">
<path fill-rule="evenodd" clip-rule="evenodd" d="M13.1971 10.3945C14.2817 11.1308 15.0417 12.1283 15.0417 13.4583V15.8333H17.4167C17.8521 15.8333 18.2083 15.477 18.2083 15.0416V13.4583C18.2083 11.7324 15.3821 10.7112 13.1971 10.3945Z" fill="#A6A6A6"/>
<path d="M7.12499 9.50033C8.8739 9.50033 10.2917 8.08256 10.2917 6.33366C10.2917 4.58476 8.8739 3.16699 7.12499 3.16699C5.37609 3.16699 3.95833 4.58476 3.95833 6.33366C3.95833 8.08256 5.37609 9.50033 7.12499 9.50033Z" fill="#A6A6A6"/>
<path fill-rule="evenodd" clip-rule="evenodd" d="M11.875 9.50033C13.6246 9.50033 15.0417 8.08324 15.0417 6.33366C15.0417 4.58408 13.6246 3.16699 11.875 3.16699C11.5029 3.16699 11.1546 3.24616 10.8221 3.35699C11.5033 4.1995 11.875 5.25019 11.875 6.33366C11.875 7.41713 11.5033 8.46782 10.8221 9.31033C11.1546 9.42116 11.5029 9.50033 11.875 9.50033ZM7.12501 10.292C5.01126 10.292 0.791672 11.3528 0.791672 13.4587V15.042C0.791672 15.4774 1.14792 15.8337 1.58334 15.8337H12.6667C13.1021 15.8337 13.4583 15.4774 13.4583 15.042V13.4587C13.4583 11.3528 9.23876 10.292 7.12501 10.292Z" fill="#A6A6A6"/>
</svg>
